<svg id="location" xmlns="http://www.w3.org/2000/svg" width="33.512" height="41.891" viewBox="0 0 33.512 41.891">
  <path id="Path_1186" data-name="Path 1186" d="M36.555-113.343a4.026,4.026,0,0,0,2.958-1.232,4.026,4.026,0,0,0,1.232-2.958,4.033,4.033,0,0,0-1.232-2.958,4.026,4.026,0,0,0-2.958-1.232A4.03,4.03,0,0,0,33.6-120.49a4.033,4.033,0,0,0-1.232,2.958,4.026,4.026,0,0,0,1.232,2.958A4.03,4.03,0,0,0,36.555-113.343Zm0,15.394A57.613,57.613,0,0,0,46.033-108.6q3.086-4.791,3.088-8.509a12.66,12.66,0,0,0-3.637-9.346,12.14,12.14,0,0,0-8.929-3.64,12.131,12.131,0,0,0-8.926,3.64,12.653,12.653,0,0,0-3.64,9.346q0,3.716,3.09,8.509A57.5,57.5,0,0,0,36.555-97.949Zm0,5.551a69.612,69.612,0,0,1-12.592-13.327Q19.8-111.877,19.8-117.112q0-7.854,5.052-12.515a16.742,16.742,0,0,1,11.7-4.66,16.742,16.742,0,0,1,11.7,4.66q5.052,4.659,5.052,12.515,0,5.237-4.162,11.388A69.707,69.707,0,0,1,36.555-92.4Z" transform="translate(-19.799 134.288)" fill="#8a949c"/>
</svg>
