<svg id="mail" xmlns="http://www.w3.org/2000/svg" width="41.87" height="33.498" viewBox="0 0 41.87 33.498">
  <path id="Path_1188" data-name="Path 1188" d="M72.9-98.981a4.025,4.025,0,0,1-2.955-1.232,4.022,4.022,0,0,1-1.229-2.955v-25.123a4.022,4.022,0,0,1,1.229-2.955,4.025,4.025,0,0,1,2.955-1.232h33.5a4.025,4.025,0,0,1,2.955,1.232,4.025,4.025,0,0,1,1.232,2.955v25.123a4.025,4.025,0,0,1-1.232,2.955,4.025,4.025,0,0,1-2.955,1.232Zm16.749-14.656L72.9-124.1v20.936h33.5V-124.1Zm0-4.187L106.4-128.292H72.9ZM72.9-124.1v0Z" transform="translate(-68.717 132.479)" fill="#8a949c"/>
</svg>
