<svg id="phone" xmlns="http://www.w3.org/2000/svg" width="41.756" height="41.756" viewBox="0 0 41.756 41.756">
  <path id="Path_1187" data-name="Path 1187" d="M82.7-92.5a34.79,34.79,0,0,1-14.325-3.162A42.781,42.781,0,0,1,55.5-104.624,42.847,42.847,0,0,1,46.542-117.5a34.832,34.832,0,0,1-3.16-14.325,2.36,2.36,0,0,1,.7-1.74,2.361,2.361,0,0,1,1.74-.7h9.4a2.164,2.164,0,0,1,1.45.55,2.135,2.135,0,0,1,.754,1.306l1.508,8.119a4.105,4.105,0,0,1-.058,1.566,2.446,2.446,0,0,1-.638,1.1L52.6-115.933a28,28,0,0,0,2.754,4.145,40.624,40.624,0,0,0,3.51,3.858,40.151,40.151,0,0,0,3.77,3.334,36.4,36.4,0,0,0,4.176,2.814l5.451-5.451a3.24,3.24,0,0,1,1.362-.784,3.75,3.75,0,0,1,1.654-.144l8,1.624a2.691,2.691,0,0,1,1.334.84,2.043,2.043,0,0,1,.522,1.364v9.4a2.361,2.361,0,0,1-.7,1.74A2.361,2.361,0,0,1,82.7-92.5ZM50.4-120.34l3.828-3.828-.986-5.451H48.08a47.532,47.532,0,0,0,.812,4.7A25.266,25.266,0,0,0,50.4-120.34ZM71.161-99.578a28.942,28.942,0,0,0,4.609,1.566,28.21,28.21,0,0,0,4.728.754v-5.1l-5.451-1.1Z" transform="translate(-43.382 134.259)" fill="#8a949c"/>
</svg>
