<svg id="time" xmlns="http://www.w3.org/2000/svg" width="41.499" height="41.499" viewBox="0 0 41.499 41.499">
  <path id="Path_1189" data-name="Path 1189" d="M121.752-103.7l2.9-2.9-7.676-7.678v-9.544h-4.15v11.2Zm-6.846,11a20.187,20.187,0,0,1-8.094-1.633,20.979,20.979,0,0,1-6.588-4.435,20.978,20.978,0,0,1-4.435-6.588,20.224,20.224,0,0,1-1.633-8.091,20.224,20.224,0,0,1,1.633-8.091,20.952,20.952,0,0,1,4.435-6.588,20.939,20.939,0,0,1,6.588-4.435,20.189,20.189,0,0,1,8.094-1.635A20.186,20.186,0,0,1,123-132.569a20.939,20.939,0,0,1,6.588,4.435,20.952,20.952,0,0,1,4.435,6.588,20.224,20.224,0,0,1,1.633,8.091,20.224,20.224,0,0,1-1.633,8.091,20.978,20.978,0,0,1-4.435,6.588A20.978,20.978,0,0,1,123-94.339,20.184,20.184,0,0,1,114.906-92.706Zm0-4.15a15.994,15.994,0,0,0,11.747-4.848,16,16,0,0,0,4.851-11.75,16,16,0,0,0-4.851-11.75,16,16,0,0,0-11.747-4.851,16,16,0,0,0-11.75,4.851,16,16,0,0,0-4.851,11.75,16,16,0,0,0,4.851,11.75A16,16,0,0,0,114.906-96.856Z" transform="translate(-94.156 134.204)" fill="#8a949c"/>
</svg>
